<svg xmlns="http://www.w3.org/2000/svg" width="300" height="300" viewBox="0 0 300 300">
  <defs>
    <style>
      .cls-1, .cls-2 {
        fill: none;
        stroke: #fff;
      }

      .cls-1 {
        stroke-width: 6px;
      }

      .cls-2 {
        stroke-width: 3px;
      }

      .cls-3 {
        fill: #fff;
        fill-rule: evenodd;
      }
    </style>
  </defs>
  <circle id="Outer_Circle" data-name="Outer Circle" class="cls-1" cx="150" cy="150" r="142.5"/>
  <circle id="Inner_Circle" data-name="Inner Circle" class="cls-2" cx="150" cy="150" r="97.5"/>
  <path id="Cup" class="cls-3" d="M196.394,99.184h-5.847V95.755a9.258,9.258,0,0,0-9.24-9.255H118.693a9.258,9.258,0,0,0-9.241,9.255v3.429h-5.846a6.87,6.87,0,0,0-6.856,6.867v4.741a6.87,6.87,0,0,0,6.856,6.867h2.965l9,85.476a11.551,11.551,0,0,0,11.5,10.365h45.843a11.545,11.545,0,0,0,11.5-10.366l9.008-85.476h2.965a6.87,6.87,0,0,0,6.856-6.867V106.05a6.869,6.869,0,0,0-6.856-6.866h0Zm-82.57-3.429a4.878,4.878,0,0,1,4.868-4.876h62.616a4.876,4.876,0,0,1,4.867,4.876v3.429H113.826Zm68.571,84.9-2.324,22.019a7.177,7.177,0,0,1-7.149,6.446H127.079a7.181,7.181,0,0,1-7.151-6.446l-2.32-22.019H182.4Zm16.482-69.864a2.488,2.488,0,0,1-2.484,2.488H103.606a2.489,2.489,0,0,1-2.484-2.488v-4.74a2.489,2.489,0,0,1,2.484-2.488h92.787a2.489,2.489,0,0,1,2.484,2.488v4.741Zm-12.562,32.64,2.713-25.773H110.965l2.716,25.773h72.634Z"/>
  <path id="SIMPATICO_COFFEE_EST_1990_SIMPATICO_COFFE_EST_1990_" data-name="SIMPATICO COFFEE • EST 1990 • SIMPATICO COFFE • EST 1990 •" class="cls-3" d="M65.131,78.909c2.752-3.212,2.441-6.171.265-8.036-4.443-3.808-9.032,4.112-10.924,2.491-0.714-.612-0.675-1.631.257-2.719A6.732,6.732,0,0,1,59,68.3l-0.648-3a8.718,8.718,0,0,0-5.635,3.217c-2.4,2.8-2.227,5.921-.247,7.618,4.478,3.838,8.9-4.252,11.01-2.447,0.678,0.581.739,1.81-.453,3.2a6.872,6.872,0,0,1-4.848,2.406l0.75,3.025A8.934,8.934,0,0,0,65.131,78.909Zm7.975-8.789L62.176,58.884l-2.392,2.327,10.93,11.236ZM88.653,57.443L79.094,45.017l-3.726,2.866,2.757,9.829-8.793-5.186-3.707,2.852L75.184,67.8l2.645-2.035-6.693-8.7,10.195,6.006,1.155-.889L79.3,50.792l6.693,8.7Zm5.67-3.154-2.68-4.883,3.5-1.923a5.058,5.058,0,1,0-4.863-8.86l-6.429,3.528L91.4,55.895ZM93.34,45.122l-3.111,1.708-2.036-3.709L91.3,41.413A2.123,2.123,0,1,1,93.34,45.122Zm22.989-.834L104.905,31.969,101.02,33.52,101.2,50.328l3.536-1.412-0.068-2.833,6.243-2.493,1.88,2.109ZM108.972,41.2l-4.54,1.813L104.2,35.844ZM123.1,42.658l-3.283-12.31,4.407-1.175-0.757-2.839-12.084,3.222,0.757,2.839,4.429-1.181,3.283,12.31Zm9.829-2-2.669-15.444-3.288.568,2.669,15.444Zm10.643-.869a7.216,7.216,0,0,0,6.266-4.306l-2.957-1.18a4.2,4.2,0,0,1-3.518,2.534,4.88,4.88,0,0,1-5.262-4.786,4.88,4.88,0,0,1,4.535-5.479,4.246,4.246,0,0,1,3.84,2.013l2.76-1.609a7.173,7.173,0,0,0-6.809-3.357c-4.687.332-8.088,3.87-7.747,8.675S138.88,40.12,143.567,39.788ZM159.5,39.959a7.874,7.874,0,0,0,8.832-7.411,8.188,8.188,0,0,0-16.32-1.332A7.867,7.867,0,0,0,159.5,39.959Zm0.241-2.95c-2.88-.235-4.548-2.611-4.311-5.514,0.239-2.927,2.269-4.977,5.149-4.742s4.573,2.589,4.334,5.516C164.677,35.173,162.622,37.244,159.742,37.009Zm23.37,7.456a7.221,7.221,0,0,0,7.381-1.841l-2.358-2.142a4.2,4.2,0,0,1-4.185,1.142A4.883,4.883,0,0,1,180.7,35.3a4.882,4.882,0,0,1,6.169-3.546,4.247,4.247,0,0,1,2.893,3.231l3.15-.541a7.176,7.176,0,0,0-5.2-5.531c-4.509-1.331-8.934.794-10.3,5.415S178.6,43.134,183.112,44.465Zm14.859,5.746a7.879,7.879,0,0,0,10.88-3.835A8.192,8.192,0,1,0,197.971,50.211Zm1.264-2.679c-2.615-1.233-3.342-4.045-2.1-6.681,1.253-2.657,3.875-3.864,6.49-2.63s3.373,4.034,2.12,6.691C204.5,47.548,201.85,48.765,199.235,47.532Zm11.029,9.121,3.575-5.411,6.332,4.183,1.619-2.451-6.332-4.183,1.826-2.764,6.469,4.274,1.619-2.451-9.253-6.113-8.638,13.077ZM221.1,64.521l4.2-4.937,5.778,4.92,1.9-2.236-5.778-4.92,2.147-2.522,5.9,5.026,1.9-2.236-8.444-7.189L218.562,62.358ZM236.18,79.38l2.163-1.988L233.1,71.681l2.614-2.4,5.137,5.59,2.163-1.988-5.137-5.59,2.441-2.242,5.248,5.711,2.163-1.988L240.218,60.6,228.674,71.211Zm8.078,11.057,2.387-1.71-4.514-6.3,2.885-2.065,4.418,6.17,2.388-1.71-4.418-6.17,2.693-1.929,4.514,6.3L257,81.313,250.543,72.3,237.8,81.42Zm11.811,9.845a2.8,2.8,0,1,0-3.735-1.248A2.788,2.788,0,0,0,256.069,100.282Zm1.9,21.332,2.8-.9-2.379-7.383,3.379-1.088,2.328,7.226,2.8-.9-2.329-7.226,3.155-1.017,2.379,7.383,2.8-.9-3.4-10.56-14.923,4.809Zm1.38,8.084c0.781,4.159,3.284,5.769,6.1,5.24,5.752-1.08,2.45-9.62,4.9-10.08,0.924-.173,1.695.495,1.96,1.9a6.735,6.735,0,0,1-.845,4.8l2.745,1.373a8.718,8.718,0,0,0,1.021-6.409c-0.681-3.627-3.223-5.446-5.787-4.964-5.8,1.089-2.261,9.608-4.987,10.12-0.878.165-1.875-.557-2.213-2.359a6.876,6.876,0,0,1,1.159-5.288l-2.829-1.31A8.94,8.94,0,0,0,259.347,129.7Zm2.065,15.026,12.709-.817,0.292,4.549,2.931-.188-0.8-12.474-2.931.188,0.294,4.572-12.709.817Zm-0.681,19.238,15.6,1.468,0.273-2.9-4.474-5.377-2.166,1.708,2.4,2.846-11.322-1.066Zm-1.51,7.6c-0.923,4.537,1.842,7.809,6.471,8.75,4.353,0.885,8.344-.343,9.289-5,0.712-3.5-1.082-6.359-4.076-6.968-3.27-.664-5.5,1.472-6.065,4.236a5.183,5.183,0,0,0,1.176,4.363l-0.345-.07c-2.211-.449-4.063-2.192-3.549-4.726a4.161,4.161,0,0,1,1.821-2.82l-2.216-1.961A6.844,6.844,0,0,0,259.221,171.559Zm8.242,2.515c0.29-1.428,1.267-2.692,2.879-2.365a2.535,2.535,0,0,1,1.7,3.177,3.16,3.16,0,0,1-3.768,2.5A4.018,4.018,0,0,1,267.463,174.074Zm-11.827,11.241c-1.486,4.383.842,7.976,5.314,9.494,4.2,1.426,8.317.712,9.841-3.782,1.148-3.381-.27-6.442-3.162-7.423-3.159-1.072-5.643.764-6.549,3.434a5.186,5.186,0,0,0,.615,4.476l-0.333-.113c-2.136-.725-3.753-2.687-2.922-5.135a4.155,4.155,0,0,1,2.16-2.566l-1.949-2.224A6.84,6.84,0,0,0,255.636,185.315Zm7.857,3.534c0.468-1.379,1.6-2.51,3.153-1.982a2.533,2.533,0,0,1,1.289,3.365,3.16,3.16,0,0,1-4.052,2A4.016,4.016,0,0,1,263.493,188.849Zm-13.681,10.679c-1.965,4.009.8,7.614,4.425,9.393s8.148,1.744,10.113-2.265c1.976-4.03-.774-7.6-4.4-9.382S251.788,195.5,249.812,199.528Zm2.659,1.3c0.993-2.026,3.391-1.792,5.986-.52s4.228,3.015,3.235,5.041c-0.983,2-3.36,1.781-5.955.508S251.488,202.836,252.471,200.832ZM244.2,220.271a2.8,2.8,0,1,0-.661-3.882A2.789,2.789,0,0,0,244.2,220.271Zm-14.269,7.605c-2.932,3.048-2.792,6.02-.726,8.008,4.216,4.057,9.254-3.585,11.049-1.858,0.678,0.651.581,1.667-.413,2.7a6.735,6.735,0,0,1-4.4,2.1l0.474,3.032a8.721,8.721,0,0,0,5.811-2.888c2.558-2.658,2.564-5.783.685-7.591-4.251-4.09-9.136,3.732-11.134,1.81-0.643-.619-0.634-1.849.637-3.17a6.875,6.875,0,0,1,4.978-2.124l-0.574-3.063A8.932,8.932,0,0,0,229.93,227.876Zm-8.452,8.305,10.274,11.842,2.521-2.188L224,233.994Zm-16.266,11.8,8.834,12.948,3.883-2.648-2.193-9.97,8.483,5.678,3.863-2.635L219.248,238.4l-2.757,1.881,6.186,9.066-9.835-6.576-1.2.821,2.536,11.556-6.186-9.066Zm-5.812,2.794,2.392,5.029-3.607,1.715a5.056,5.056,0,1,0,4.338,9.124l6.62-3.148-6.73-14.153Zm0.449,9.205,3.2-1.524,1.816,3.819-3.2,1.524A2.122,2.122,0,1,1,199.849,259.976Zm-23-.487,10.69,12.953,3.967-1.325,0.787-16.784-3.61,1.205-0.095,2.831-6.374,2.128-1.755-2.214Zm7.164,3.5,4.635-1.547-0.182,7.17Zm-14.034-2.27,2.559,12.476-4.465.916,0.59,2.877,12.245-2.512-0.59-2.877-4.488.92-2.559-12.475Zm-9.918,1.427,1.77,15.576,3.316-.377-1.77-15.575Zm-10.691.254a7.217,7.217,0,0,0-6.506,3.937l2.884,1.349a4.2,4.2,0,0,1,3.66-2.326,5.152,5.152,0,0,1,.131,10.292,4.25,4.25,0,0,1-3.718-2.232l-2.849,1.446a7.176,7.176,0,0,0,6.6,3.746c4.7-.06,8.3-3.4,8.237-8.212S154.068,262.343,149.369,262.4Zm-15.885-1.092a8.109,8.109,0,1,0,6.973,9.167A7.877,7.877,0,0,0,133.484,261.311Zm-0.412,2.933c2.863,0.4,4.392,2.871,3.987,5.757-0.409,2.91-2.555,4.84-5.418,4.438s-4.418-2.851-4.01-5.761C128.037,265.792,130.209,263.842,133.072,264.244Zm-22.916-8.8a7.218,7.218,0,0,0-7.475,1.407l2.228,2.275a4.205,4.205,0,0,1,4.244-.9,5.153,5.153,0,0,1-3.485,9.687,4.248,4.248,0,0,1-2.7-3.394l-3.176.356a7.176,7.176,0,0,0,4.874,5.825c4.423,1.591,8.965-.272,10.6-4.806S114.579,257.031,110.156,255.44Zm-14.468-6.6a8.107,8.107,0,1,0,3.29,11.034A7.874,7.874,0,0,0,95.688,248.839Zm-1.419,2.6c2.536,1.386,3.1,4.234,1.7,6.791-1.408,2.578-4.1,3.626-6.632,2.241s-3.127-4.225-1.719-6.8C89.013,251.109,91.733,250.051,94.269,251.437Zm-10.486-9.759-3.889,5.193-6.078-4.552-1.762,2.352,6.078,4.552-1.987,2.653-6.209-4.65-1.762,2.352,8.881,6.651,9.4-12.55Zm-10.358-8.5-4.489,4.682-5.48-5.253-2.033,2.121,5.48,5.253-2.293,2.392-5.6-5.367-2.033,2.121,8.007,7.676,10.847-11.316ZM59.263,217.453L56.979,219.3l4.878,6.031L59.1,227.563l-4.774-5.9-2.284,1.848,4.775,5.9L54.237,231.5l-4.878-6.031-2.284,1.848,6.977,8.625,12.188-9.859Zm-12.45-9.032a2.8,2.8,0,1,0,3.809,1A2.789,2.789,0,0,0,46.814,208.421Zm-3.279-21.138-2.73,1.082,2.856,7.208-3.3,1.307-2.8-7.055-2.73,1.082,2.8,7.055-3.08,1.22L31.7,191.975l-2.73,1.081,4.085,10.31,14.568-5.774Zm-1.9-7.969c-1.052-4.1-3.654-5.542-6.432-4.829-5.669,1.454-1.816,9.76-4.229,10.379-0.911.234-1.724-.383-2.08-1.772a6.732,6.732,0,0,1,.529-4.843l-2.829-1.191a8.72,8.72,0,0,0-.6,6.463c0.917,3.575,3.573,5.223,6.1,4.575,5.715-1.467,1.628-9.737,4.314-10.426,0.865-.222,1.907.433,2.363,2.209a6.875,6.875,0,0,1-.811,5.353l2.909,1.122A8.937,8.937,0,0,0,41.632,179.314ZM38.6,164.438l-12.628,1.629-0.583-4.52-2.912.375,1.6,12.4,2.912-.376L26.4,169.4l12.628-1.63ZM38.04,145.2l-15.667-.462-0.086,2.913,4.811,5.079,2.053-1.844L26.573,148.2l11.369,0.335Zm1.021-7.668c0.629-4.586-2.34-7.672-7.019-8.314-4.4-.6-8.3.878-8.947,5.58-0.485,3.539,1.488,6.276,4.514,6.69,3.306,0.454,5.4-1.821,5.779-4.615a5.183,5.183,0,0,0-1.453-4.278l0.349,0.048c2.235,0.306,4.194,1.927,3.843,4.487a4.154,4.154,0,0,1-1.635,2.93l2.336,1.815A6.841,6.841,0,0,0,39.061,137.53Zm-8.385-1.979c-0.2,1.443-1.091,2.767-2.72,2.544a2.533,2.533,0,0,1-1.9-3.059,3.16,3.16,0,0,1,3.6-2.732A4.019,4.019,0,0,1,30.676,135.551Zm11.085-11.993c1.2-4.47-1.352-7.908-5.913-9.135-4.289-1.155-8.348-.179-9.582,4.405-0.928,3.45.683,6.414,3.633,7.208,3.222,0.868,5.584-1.125,6.317-3.848a5.185,5.185,0,0,0-.9-4.429l0.34,0.092c2.179,0.586,3.918,2.442,3.246,4.938a4.156,4.156,0,0,1-1.992,2.7l2.089,2.1A6.843,6.843,0,0,0,41.761,123.558Zm-8.069-3.023c-0.379,1.407-1.432,2.608-3.021,2.18a2.534,2.534,0,0,1-1.5-3.276,3.162,3.162,0,0,1,3.917-2.256A4.021,4.021,0,0,1,33.691,120.535Zm12.966-11.521c1.7-4.128-1.283-7.548-5.02-9.091s-8.245-1.217-9.95,2.911c-1.713,4.149,1.261,7.539,5,9.082S44.944,113.164,46.657,109.014Zm-2.737-1.13c-0.861,2.086-3.27,2.007-5.942.9s-4.413-2.737-3.552-4.823c0.852-2.064,3.239-1.994,5.911-.891S44.772,105.82,43.92,107.884Zm7.009-19.949a2.8,2.8,0,1,0,.911,3.832A2.789,2.789,0,0,0,50.928,87.935Z"/>
</svg>
